<svg width="62" height="47" viewBox="0 0 62 47" fill="none" xmlns="http://www.w3.org/2000/svg">
<g clip-path="url(#clip0_206_26)">
<path d="M60.49 26.8999C60.54 26.8299 60.59 26.7599 60.64 26.6999C60.7 26.6199 60.76 26.5499 60.81 26.4699C60.87 26.3899 60.91 26.2999 60.96 26.2199C61 26.1499 61.05 26.0799 61.09 25.9999C61.14 25.9099 61.18 25.8199 61.22 25.7399C61.26 25.6599 61.29 25.5899 61.33 25.5099C61.37 25.4199 61.4 25.3299 61.43 25.2399C61.46 25.1599 61.49 25.0799 61.52 24.9899C61.55 24.8999 61.57 24.8099 61.59 24.7099C61.61 24.6299 61.63 24.5399 61.65 24.4599C61.67 24.3499 61.69 24.2399 61.7 24.1299C61.7 24.0599 61.72 23.9899 61.73 23.9199C61.77 23.5499 61.77 23.1799 61.73 22.8099C61.73 22.7399 61.71 22.6699 61.7 22.5999C61.68 22.4899 61.67 22.3799 61.65 22.2699C61.63 22.1799 61.61 22.0999 61.59 22.0199C61.57 21.9299 61.55 21.8299 61.52 21.7399C61.49 21.6599 61.46 21.5699 61.43 21.4899C61.4 21.3999 61.37 21.3099 61.33 21.2199C61.3 21.1399 61.26 21.0699 61.22 20.9899C61.18 20.8999 61.14 20.8099 61.09 20.7299C61.05 20.6599 61 20.5899 60.96 20.5099C60.91 20.4299 60.86 20.3399 60.81 20.2599C60.76 20.1799 60.7 20.0999 60.64 20.0299C60.59 19.9599 60.54 19.8899 60.49 19.8299C60.37 19.6899 60.25 19.5499 60.12 19.4199L42.35 1.63988C40.17 -0.540117 36.63 -0.540117 34.45 1.63988C32.27 3.81988 32.27 7.35988 34.45 9.53988L42.68 17.7699H5.59C2.5 17.7699 0 20.2699 0 23.3599C0 26.4499 2.5 28.9499 5.59 28.9499H42.68L34.45 37.1799C32.27 39.3599 32.27 42.8999 34.45 45.0799C35.54 46.1699 36.97 46.7199 38.4 46.7199C39.83 46.7199 41.26 46.1699 42.35 45.0799L60.12 27.3099C60.25 27.1799 60.37 27.0399 60.49 26.8999V26.8999Z" fill="black"/>
</g>
<defs>
<clipPath id="clip0_206_26">
<rect width="61.76" height="46.71" fill="white"/>
</clipPath>
</defs>
</svg>
